<?xml version="1.0" encoding="utf-8"?>
<!-- Generator: Adobe Illustrator 21.0.0, SVG Export Plug-In . SVG Version: 6.00 Build 0)  -->
<svg version="1.1" id="Layer_1" xmlns="http://www.w3.org/2000/svg" xmlns:xlink="http://www.w3.org/1999/xlink" x="0px" y="0px"
	 viewBox="285 170 200 200" width="1024" height="1024" xml:space="preserve">
<style type="text/css">
	.st0{fill:none;}
	.st1{fill:#64B5F6;}
	.st2{fill:#1E88E5;}
	.st3{fill:#1976D2;}
	.st4{fill:#42A5F5;}
	.st5{fill:#1565C0;}
	.st6{fill:#0D47A1;}
</style>
<g>
	<g>
		<g>
			<polygon class="st0" points="385.4,309.3 385.4,309.4 385.4,309.3 385.4,309.3 			"/>
			<polygon class="st1" points="483,355.8 484.1,356.3 443.8,287 434.3,270.7 430.7,264.4 406,289 			"/>
			<polygon class="st2" points="406,289 430.7,264.4 419.2,244.7 385.8,185.3 385.4,184.7 385,185.4 385,270.8 			"/>
			<polygon class="st3" points="385,270.8 364.4,288.7 385.4,309.3 385.4,309.3 385.4,309.3 406,289 			"/>
			<polygon class="st4" points="385.4,309.3 431.9,331.4 483,355.8 406,289 			"/>
			<polygon class="st5" points="286.3,356.4 286,356.9 364.3,319.3 385.4,309.3 364.4,288.7 			"/>
			<polygon class="st6" points="286.3,356.4 364.4,288.7 339.2,264.1 331.1,278.1 			"/>
			<polygon class="st5" points="385,270.8 385,185.4 341,261 339.2,264.1 364.4,288.7 			"/>
		</g>
	</g>
</g>
</svg>
