<?xml version="1.0" encoding="utf-8"?>
<!-- Generator: Adobe Illustrator 21.0.0, SVG Export Plug-In . SVG Version: 6.00 Build 0)  -->
<svg version="1.1" id="Layer_1" xmlns="http://www.w3.org/2000/svg" xmlns:xlink="http://www.w3.org/1999/xlink" x="0px" y="0px"
	 viewBox="0 0 792 612" style="enable-background:new 0 0 792 612;" width="792" height="612" xml:space="preserve">
<style type="text/css">
	.st0{fill:none;}
	.st1{fill:#64B5F6;}
	.st2{fill:#1E88E5;}
	.st3{fill:#1976D2;}
	.st4{fill:#42A5F5;}
	.st5{fill:#1565C0;}
	.st6{fill:#0D47A1;}
</style>
<g>
	<g>
		<path d="M237.5,413.5h-5.2v-7.1h-18.4v7.1h-5.2V399c0-2.1,0.4-4.1,1.1-5.8c0.7-1.8,1.7-3.3,3-4.6c1.3-1.3,2.8-2.3,4.6-3
			c1.8-0.7,3.7-1.1,5.8-1.1h11.8c0.4,0,0.7,0.1,1,0.2s0.6,0.3,0.8,0.6s0.4,0.5,0.6,0.8c0.1,0.3,0.2,0.7,0.2,1V413.5z M213.8,401.1
			h18.4v-11.3h-9.2c-0.2,0-0.5,0-1,0.1c-0.5,0-1.1,0.2-1.8,0.4s-1.4,0.5-2.1,0.9c-0.8,0.4-1.4,0.9-2.1,1.6c-0.6,0.7-1.2,1.5-1.6,2.6
			s-0.6,2.3-0.6,3.7V401.1z"/>
		<path d="M269.8,389.8h-11.6v23.7H253v-23.7h-11.6v-5.2h28.4V389.8z"/>
		<path d="M300.2,413.5h-23.9c-0.4,0-0.7-0.1-1-0.2c-0.3-0.1-0.6-0.3-0.8-0.6s-0.4-0.5-0.6-0.8c-0.1-0.3-0.2-0.7-0.2-1v-26.3h5.2
			v23.7h21.3V413.5z"/>
		<path d="M332.4,413.5h-5.2v-7.1h-18.4v7.1h-5.2V399c0-2.1,0.4-4.1,1.1-5.8c0.7-1.8,1.7-3.3,3-4.6c1.3-1.3,2.8-2.3,4.6-3
			c1.8-0.7,3.7-1.1,5.8-1.1h11.8c0.4,0,0.7,0.1,1,0.2s0.6,0.3,0.8,0.6s0.4,0.5,0.6,0.8c0.1,0.3,0.2,0.7,0.2,1V413.5z M308.8,401.1
			h18.4v-11.3H318c-0.2,0-0.5,0-1,0.1c-0.5,0-1.1,0.2-1.8,0.4s-1.4,0.5-2.1,0.9c-0.8,0.4-1.4,0.9-2.1,1.6c-0.6,0.7-1.2,1.5-1.6,2.6
			s-0.6,2.3-0.6,3.7V401.1z"/>
		<path d="M367.5,411.2c0,0.4-0.1,0.7-0.2,1c-0.1,0.3-0.3,0.6-0.6,0.8c-0.2,0.2-0.5,0.4-0.8,0.6c-0.3,0.1-0.7,0.2-1,0.2
			c-0.3,0-0.6-0.1-1-0.2c-0.3-0.1-0.6-0.3-0.9-0.6l-19.2-20v20.4h-5.2v-26.7c0-0.5,0.2-1,0.5-1.5c0.3-0.4,0.7-0.8,1.2-1
			c0.5-0.2,1-0.3,1.5-0.2c0.5,0.1,1,0.3,1.4,0.7l19.2,20v-20.4h5.2V411.2z"/>
		<path d="M399.7,389.8h-11.6v23.7h-5.2v-23.7h-11.6v-5.2h28.4V389.8z"/>
		<path d="M408.8,413.5h-5.2v-28.9h5.2V413.5z"/>
		<path d="M442.8,404.9c0,1-0.1,2-0.4,2.8s-0.6,1.6-1,2.2s-0.9,1.2-1.5,1.6s-1.2,0.8-1.8,1.1c-0.6,0.3-1.2,0.5-1.9,0.6
			c-0.6,0.1-1.2,0.2-1.8,0.2h-20.2v-5.2h20.2c1,0,1.8-0.3,2.4-0.9c0.6-0.6,0.8-1.4,0.8-2.4c0-0.5-0.1-0.9-0.2-1.3
			c-0.1-0.4-0.4-0.8-0.6-1s-0.6-0.5-1-0.7c-0.4-0.2-0.8-0.2-1.3-0.2h-12.1c-0.8,0-1.8-0.2-2.7-0.5c-1-0.3-1.9-0.8-2.7-1.5
			s-1.5-1.6-2.1-2.6s-0.8-2.4-0.8-4c0-1.6,0.3-2.9,0.8-4c0.6-1.1,1.3-2,2.1-2.6c0.8-0.7,1.8-1.2,2.7-1.5c1-0.3,1.9-0.5,2.7-0.5h17.9
			v5.2h-17.9c-1,0-1.8,0.3-2.3,0.9c-0.6,0.6-0.8,1.4-0.8,2.4c0,1,0.3,1.8,0.8,2.4c0.6,0.6,1.3,0.9,2.3,0.9h12.1h0
			c0.6,0,1.2,0.1,1.8,0.2c0.6,0.1,1.3,0.4,1.9,0.7s1.2,0.7,1.8,1.1c0.6,0.5,1.1,1,1.5,1.6c0.4,0.6,0.8,1.4,1,2.2
			C442.7,403,442.8,403.9,442.8,404.9z"/>
		<path d="M476,396.6c0,1.2-0.1,2.3-0.4,3.2s-0.7,1.8-1.2,2.5c-0.5,0.7-1.1,1.3-1.7,1.8c-0.7,0.5-1.3,0.9-2.1,1.3
			c-0.7,0.3-1.4,0.6-2.2,0.7c-0.7,0.1-1.4,0.2-2.1,0.2h-11.9v-5.2h11.9c0.7-0.1,1.3-0.2,1.8-0.4s1-0.5,1.4-0.9
			c0.4-0.4,0.7-0.8,0.9-1.4c0.2-0.5,0.3-1.1,0.3-1.8v-2.4c-0.1-0.7-0.2-1.3-0.4-1.8c-0.2-0.6-0.5-1-0.9-1.4s-0.8-0.7-1.3-0.9
			c-0.5-0.2-1.1-0.3-1.8-0.3h-11.8c-0.7,0-1.2,0.2-1.6,0.5s-0.5,0.9-0.5,1.6v21.6h-5.2v-21.6c0-1.3,0.2-2.5,0.7-3.4
			c0.5-0.9,1.1-1.7,1.8-2.3c0.7-0.6,1.5-1,2.4-1.3c0.9-0.3,1.7-0.4,2.4-0.4h11.9c1.2,0,2.2,0.2,3.2,0.5s1.8,0.7,2.5,1.2
			c0.7,0.5,1.3,1.1,1.8,1.7c0.5,0.7,0.9,1.3,1.3,2.1c0.3,0.7,0.6,1.4,0.7,2.2c0.1,0.7,0.2,1.4,0.2,2.1V396.6z"/>
		<path d="M507,413.5h-23.9c-0.4,0-0.7-0.1-1-0.2c-0.3-0.1-0.6-0.3-0.8-0.6s-0.4-0.5-0.6-0.8c-0.1-0.3-0.2-0.7-0.2-1v-26.3h5.2v23.7
			H507V413.5z"/>
		<path d="M539.3,413.5H534v-7.1h-18.4v7.1h-5.2V399c0-2.1,0.4-4.1,1.1-5.8c0.7-1.8,1.7-3.3,3-4.6c1.3-1.3,2.8-2.3,4.6-3
			c1.8-0.7,3.7-1.1,5.8-1.1h11.8c0.4,0,0.7,0.1,1,0.2s0.6,0.3,0.8,0.6s0.4,0.5,0.6,0.8c0.1,0.3,0.2,0.7,0.2,1V413.5z M515.6,401.1
			H534v-11.3h-9.2c-0.2,0-0.5,0-1,0.1c-0.5,0-1.1,0.2-1.8,0.4c-0.7,0.2-1.4,0.5-2.1,0.9c-0.8,0.4-1.4,0.9-2.1,1.6
			c-0.6,0.7-1.2,1.5-1.6,2.6s-0.6,2.3-0.6,3.7V401.1z"/>
		<path d="M572.9,394.2c0,1.2-0.2,2.3-0.5,3.2c-0.3,0.9-0.7,1.8-1.2,2.5c-0.5,0.7-1.1,1.3-1.7,1.8c-0.7,0.5-1.4,0.9-2.1,1.3
			c-0.7,0.3-1.4,0.6-2.2,0.7c-0.7,0.1-1.4,0.2-2.1,0.2h-2.1v9.5h-5.3V404h-2.1c-0.6,0-1.3-0.1-2.1-0.2c-0.7-0.1-1.5-0.4-2.2-0.7
			c-0.7-0.3-1.4-0.7-2.1-1.3c-0.7-0.5-1.2-1.1-1.7-1.8c-0.5-0.7-0.9-1.6-1.2-2.5s-0.5-2-0.5-3.2v-9.7h5.2v9.7c0,0.7,0.1,1.3,0.3,1.8
			c0.2,0.5,0.5,1,0.9,1.4c0.4,0.4,0.9,0.7,1.4,0.9c0.6,0.2,1.2,0.3,1.9,0.3h9.5c0.5-0.1,1-0.2,1.5-0.3s1-0.3,1.4-0.7
			s0.8-0.7,1.1-1.3c0.3-0.6,0.4-1.3,0.4-2.2v-9.7h5.2V394.2z"/>
	</g>
	<g>
		<g>
			<polygon class="st0" points="385.4,309.3 385.4,309.4 385.4,309.3 385.4,309.3 			"/>
			<polygon class="st1" points="483,355.8 484.1,356.3 443.8,287 434.3,270.7 430.7,264.4 406,289 			"/>
			<polygon class="st2" points="406,289 430.7,264.4 419.2,244.7 385.8,185.3 385.4,184.7 385,185.4 385,270.8 			"/>
			<polygon class="st3" points="385,270.8 364.4,288.7 385.4,309.3 385.4,309.3 385.4,309.3 406,289 			"/>
			<polygon class="st4" points="385.4,309.3 431.9,331.4 483,355.8 406,289 			"/>
			<polygon class="st5" points="286.3,356.4 286,356.9 364.3,319.3 385.4,309.3 364.4,288.7 			"/>
			<polygon class="st6" points="286.3,356.4 364.4,288.7 339.2,264.1 331.1,278.1 			"/>
			<polygon class="st5" points="385,270.8 385,185.4 341,261 339.2,264.1 364.4,288.7 			"/>
		</g>
	</g>
</g>
</svg>
